<svg xmlns="http://www.w3.org/2000/svg" viewBox="0 0 1600 900" preserveAspectRatio="xMidYMid slice">
  <defs>
    <linearGradient id="sky" x1="0" y1="0" x2="0" y2="1">
      <stop offset="0"    stop-color="#01030f"/>
      <stop offset="0.45" stop-color="#040a22"/>
      <stop offset="0.8"  stop-color="#0a1432"/>
      <stop offset="1"    stop-color="#101a40"/>
    </linearGradient>
    <linearGradient id="hillBg" x1="0" y1="0" x2="0" y2="1">
      <stop offset="0" stop-color="#070d1f"/>
      <stop offset="1" stop-color="#01020a"/>
    </linearGradient>
    <linearGradient id="hill" x1="0" y1="0" x2="0" y2="1">
      <stop offset="0" stop-color="#030514"/>
      <stop offset="1" stop-color="#000003"/>
    </linearGradient>
  </defs>

  <rect width="1600" height="900" fill="url(#sky)"/>

  <g fill="#ffffff">
    <circle cx="47"   cy="83"  r="0.7" opacity="0.32"/>
    <circle cx="293"  cy="38"  r="1.3" opacity="0.78"/>
    <circle cx="418"  cy="171" r="0.5" opacity="0.18"/>
    <circle cx="612"  cy="62"  r="1.0" opacity="0.42"/>
    <circle cx="731"  cy="244" r="0.8" opacity="0.21"/>
    <circle cx="89"   cy="316" r="1.4" opacity="0.85"/>
    <circle cx="167"  cy="492" r="0.6" opacity="0.27"/>
    <circle cx="252"  cy="207" r="0.5" opacity="0.16"/>
    <circle cx="384"  cy="354" r="1.1" opacity="0.55"/>
    <circle cx="503"  cy="98"  r="0.4" opacity="0.14"/>
    <circle cx="558"  cy="429" r="0.9" opacity="0.38"/>
    <circle cx="672"  cy="148" r="0.7" opacity="0.24"/>
    <circle cx="789"  cy="56"  r="1.6" opacity="0.92"/>
    <circle cx="843"  cy="312" r="0.8" opacity="0.31"/>
    <circle cx="921"  cy="216" r="1.0" opacity="0.48"/>
    <circle cx="987"  cy="471" r="0.6" opacity="0.19"/>
    <circle cx="1043" cy="89"  r="1.2" opacity="0.66"/>
    <circle cx="1118" cy="378" r="0.7" opacity="0.29"/>
    <circle cx="1197" cy="142" r="0.5" opacity="0.17"/>
    <circle cx="1264" cy="265" r="0.9" opacity="0.4"/>
    <circle cx="1331" cy="42"  r="0.6" opacity="0.22"/>
    <circle cx="1408" cy="299" r="1.3" opacity="0.75"/>
    <circle cx="1473" cy="187" r="0.7" opacity="0.26"/>
    <circle cx="1538" cy="76"  r="0.8" opacity="0.34"/>
    <circle cx="124"  cy="183" r="0.5" opacity="0.15"/>
    <circle cx="206"  cy="439" r="1.0" opacity="0.5"/>
    <circle cx="341"  cy="51"  r="0.7" opacity="0.23"/>
    <circle cx="467"  cy="287" r="0.9" opacity="0.36"/>
    <circle cx="649"  cy="408" r="0.5" opacity="0.13"/>
    <circle cx="754"  cy="367" r="1.5" opacity="0.88"/>
    <circle cx="876"  cy="118" r="0.6" opacity="0.2"/>
    <circle cx="958"  cy="338" r="0.4" opacity="0.12"/>
    <circle cx="1086" cy="232" r="0.9" opacity="0.43"/>
    <circle cx="1156" cy="461" r="0.7" opacity="0.28"/>
    <circle cx="1238" cy="58"  r="1.1" opacity="0.58"/>
    <circle cx="1369" cy="219" r="0.6" opacity="0.18"/>
    <circle cx="1452" cy="402" r="0.8" opacity="0.32"/>
    <circle cx="1517" cy="332" r="0.7" opacity="0.25"/>
    <circle cx="76"   cy="247" r="1.2" opacity="0.7"/>
    <circle cx="183"  cy="378" r="0.6" opacity="0.21"/>
    <circle cx="318"  cy="498" r="0.8" opacity="0.33"/>
    <circle cx="439"  cy="234" r="0.7" opacity="0.27"/>
    <circle cx="529"  cy="158" r="0.5" opacity="0.16"/>
    <circle cx="617"  cy="328" r="0.9" opacity="0.41"/>
    <circle cx="709"  cy="464" r="0.6" opacity="0.2"/>
    <circle cx="808"  cy="421" r="0.7" opacity="0.24"/>
    <circle cx="894"  cy="278" r="0.4" opacity="0.11"/>
    <circle cx="999"  cy="174" r="1.0" opacity="0.52"/>
    <circle cx="1102" cy="312" r="0.6" opacity="0.19"/>
    <circle cx="1284" cy="476" r="0.8" opacity="0.36"/>
    <circle cx="362"  cy="129" r="1.4" opacity="0.82"/>
    <circle cx="724"  cy="103" r="0.5" opacity="0.14"/>
    <circle cx="1029" cy="394" r="0.7" opacity="0.26"/>
    <circle cx="248"  cy="294" r="0.6" opacity="0.18"/>
    <circle cx="591"  cy="263" r="0.4" opacity="0.1"/>
    <circle cx="867"  cy="491" r="1.1" opacity="0.62"/>
    <circle cx="1374" cy="73"  r="0.5" opacity="0.15"/>
    <circle cx="1126" cy="51"  r="0.8" opacity="0.31"/>
  </g>

  <path d="M0 660
           C 220 620, 480 560, 780 600
           C 1080 630, 1320 560, 1600 590
           L 1600 900 L 0 900 Z"
        fill="url(#hillBg)"/>

  <path d="M0 740
           C 180 680, 340 560, 580 510
           C 820 470, 1080 550, 1320 640
           C 1430 680, 1500 710, 1600 720
           L 1600 900 L 0 900 Z"
        fill="url(#hill)"/>
</svg>
