<svg xmlns="http://www.w3.org/2000/svg" viewBox="0 0 1600 900" preserveAspectRatio="xMidYMid slice">
  <defs>
    <linearGradient id="sky" x1="0" y1="0" x2="0" y2="1">
      <stop offset="0"    stop-color="#1d0a3a"/>
      <stop offset="0.25" stop-color="#43155b"/>
      <stop offset="0.5"  stop-color="#8c2a52"/>
      <stop offset="0.78" stop-color="#d8533a"/>
      <stop offset="1"    stop-color="#b83a2a"/>
    </linearGradient>
    <radialGradient id="sun" cx="0.5" cy="0.5" r="0.5">
      <stop offset="0"    stop-color="#ffd078" stop-opacity="0.7"/>
      <stop offset="0.5"  stop-color="#ff8848" stop-opacity="0.35"/>
      <stop offset="1"    stop-color="#ff5a30" stop-opacity="0"/>
    </radialGradient>
    <radialGradient id="cloud" cx="0.5" cy="0.5" r="0.5">
      <stop offset="0"    stop-color="#f7a87a" stop-opacity="0.65"/>
      <stop offset="0.55" stop-color="#c8624a" stop-opacity="0.25"/>
      <stop offset="1"    stop-color="#c8624a" stop-opacity="0"/>
    </radialGradient>
    <linearGradient id="hillBg" x1="0" y1="0" x2="0" y2="1">
      <stop offset="0" stop-color="#54293f"/>
      <stop offset="1" stop-color="#231425"/>
    </linearGradient>
    <linearGradient id="hill" x1="0" y1="0" x2="0" y2="1">
      <stop offset="0" stop-color="#2b132a"/>
      <stop offset="1" stop-color="#0a050f"/>
    </linearGradient>
  </defs>

  <rect width="1600" height="900" fill="url(#sky)"/>

  <ellipse cx="900" cy="600" rx="560" ry="300" fill="url(#sun)"/>

  <g>
    <ellipse cx="240"  cy="180" rx="240" ry="34" fill="url(#cloud)"/>
    <ellipse cx="330"  cy="220" rx="180" ry="26" fill="url(#cloud)"/>
    <ellipse cx="1330" cy="130" rx="280" ry="38" fill="url(#cloud)"/>
    <ellipse cx="1410" cy="170" rx="200" ry="28" fill="url(#cloud)"/>
    <ellipse cx="900"  cy="300" rx="230" ry="32" fill="url(#cloud)"/>
    <ellipse cx="850"  cy="330" rx="160" ry="22" fill="url(#cloud)"/>
    <ellipse cx="540"  cy="370" rx="150" ry="20" fill="url(#cloud)"/>
  </g>

  <path d="M0 640
           C 220 600, 480 540, 780 580
           C 1080 615, 1320 540, 1600 580
           L 1600 900 L 0 900 Z"
        fill="url(#hillBg)"/>

  <path d="M0 720
           C 180 660, 340 540, 580 490
           C 820 450, 1080 530, 1320 620
           C 1430 660, 1500 690, 1600 700
           L 1600 900 L 0 900 Z"
        fill="url(#hill)"/>
</svg>
